<svg width="1600" height="1600" viewBox="0 0 1600 1600" fill="none" xmlns="http://www.w3.org/2000/svg">
<rect width="1600" height="1600" fill="white" fill-opacity="0.06"/>
<path d="M836.046 405.062C798.327 407.419 710.528 428.052 661.079 491.718L463.9 770.634" stroke="white" stroke-opacity="0.06" stroke-linecap="round"/>
<path d="M836.046 405.062C798.327 407.419 710.528 428.052 661.079 491.718L463.9 770.634" stroke="url(#paint0_linear_502_66)" stroke-linecap="round"/>
<path d="M850.027 406.88C813.033 407.319 725.959 423.165 673.614 483.039L463.298 746.304" stroke="white" stroke-opacity="0.06" stroke-linecap="round"/>
<path d="M850.027 406.88C813.033 407.319 725.959 423.165 673.614 483.039L463.298 746.304" stroke="url(#paint1_linear_502_66)" stroke-linecap="round"/>
<path d="M863.083 408.767C826.928 407.387 740.878 418.631 685.915 474.645L463.623 721.904" stroke="white" stroke-opacity="0.06" stroke-linecap="round"/>
<path d="M863.083 408.767C826.928 407.387 740.878 418.631 685.915 474.645L463.623 721.904" stroke="url(#paint2_linear_502_66)" stroke-linecap="round"/>
<path d="M875.221 410.668C840.011 407.575 755.265 414.416 697.963 466.518L464.864 697.492" stroke="white" stroke-opacity="0.06" stroke-linecap="round"/>
<path d="M875.221 410.668C840.011 407.575 755.265 414.416 697.963 466.518L464.864 697.492" stroke="url(#paint3_linear_502_66)" stroke-linecap="round"/>
<path d="M1029.38 445.255C985.727 427.152 780.15 381.913 709.743 458.638L467.011 673.121" stroke="white" stroke-opacity="0.06" stroke-linecap="round"/>
<path d="M1029.38 445.255C985.727 427.152 780.15 381.913 709.743 458.638L467.011 673.121" stroke="url(#paint4_linear_502_66)" stroke-linecap="round"/>
<path d="M1033.25 445.429C997.138 437.599 786.614 385.308 721.239 450.985L470.046 648.843" stroke="white" stroke-opacity="0.06" stroke-linecap="round"/>
<path d="M1033.25 445.429C997.138 437.599 786.614 385.308 721.239 450.985L470.046 648.843" stroke="url(#paint5_linear_502_66)" stroke-linecap="round"/>
<path d="M1028.63 447.084C997.058 433.994 796.855 390.983 732.439 443.538L473.949 624.71" stroke="white" stroke-opacity="0.06" stroke-linecap="round"/>
<path d="M1028.63 447.084C997.058 433.994 796.855 390.983 732.439 443.538L473.949 624.71" stroke="url(#paint6_linear_502_66)" stroke-linecap="round"/>
<path d="M1031.23 444.593C1000.67 435.783 807.228 399.982 743.332 436.275L478.698 600.771" stroke="white" stroke-opacity="0.06" stroke-linecap="round"/>
<path d="M1031.23 444.593C1000.67 435.783 807.228 399.982 743.332 436.275L478.698 600.771" stroke="url(#paint7_linear_502_66)" stroke-linecap="round"/>
<path d="M1033.58 448.424C1004.34 438.48 818.777 396.793 753.907 429.174L484.266 577.07" stroke="white" stroke-opacity="0.06" stroke-linecap="round"/>
<path d="M1033.58 448.424C1004.34 438.48 818.777 396.793 753.907 429.174L484.266 577.07" stroke="url(#paint8_linear_502_66)" stroke-linecap="round"/>
<path d="M1035.6 443.547C1007.73 432.592 829.741 393.698 764.156 422.214L490.621 553.651" stroke="white" stroke-opacity="0.06" stroke-linecap="round"/>
<path d="M1035.6 443.547C1007.73 432.592 829.741 393.698 764.156 422.214L490.621 553.651" stroke="url(#paint9_linear_502_66)" stroke-linecap="round"/>
<path d="M1033.5 444.819C1007.04 432.973 840.121 390.658 774.072 415.372L497.734 530.555" stroke="white" stroke-opacity="0.06" stroke-linecap="round"/>
<path d="M1033.5 444.819C1007.04 432.973 840.121 390.658 774.072 415.372L497.734 530.555" stroke="url(#paint10_linear_502_66)" stroke-linecap="round"/>
<path d="M461.85 610.696C453.659 644.803 449.85 730.394 500.147 799.9L725.938 1087.31" stroke="white" stroke-opacity="0.06" stroke-linecap="round"/>
<path d="M461.85 610.696C453.659 644.803 449.85 730.394 500.147 799.9L725.938 1087.31" stroke="url(#paint11_linear_502_66)" stroke-linecap="round"/>
<path d="M467.599 599.155C457.677 631.84 449.249 714.835 494.913 785.334L701.255 1077.88" stroke="white" stroke-opacity="0.06" stroke-linecap="round"/>
<path d="M467.599 599.155C457.677 631.84 449.249 714.835 494.913 785.334L701.255 1077.88" stroke="url(#paint12_linear_502_66)" stroke-linecap="round"/>
<path d="M473.158 588.455C461.639 619.659 448.861 699.871 489.901 771.09L676.761 1067.61" stroke="white" stroke-opacity="0.06" stroke-linecap="round"/>
<path d="M473.158 588.455C461.639 619.659 448.861 699.871 489.901 771.09L676.761 1067.61" stroke="url(#paint13_linear_502_66)" stroke-linecap="round"/>
<path d="M478.474 578.568C465.493 608.241 448.644 685.505 485.088 757.178L652.511 1056.52" stroke="white" stroke-opacity="0.06" stroke-linecap="round"/>
<path d="M478.474 578.568C465.493 608.241 448.644 685.505 485.088 757.178L652.511 1056.52" stroke="url(#paint14_linear_502_66)" stroke-linecap="round"/>
<path d="M483.494 569.459C469.191 597.561 448.557 671.733 480.449 743.602L628.557 1044.66" stroke="white" stroke-opacity="0.06" stroke-linecap="round"/>
<path d="M483.494 569.459C469.191 597.561 448.557 671.733 480.449 743.602L628.557 1044.66" stroke="url(#paint15_linear_502_66)" stroke-linecap="round"/>
<path d="M488.171 561.091C472.682 587.594 448.556 658.553 475.958 730.368L604.945 1032.06" stroke="white" stroke-opacity="0.06" stroke-linecap="round"/>
<path d="M488.171 561.091C472.682 587.594 448.556 658.553 475.958 730.368L604.945 1032.06" stroke="url(#paint16_linear_502_66)" stroke-linecap="round"/>
<path d="M492.459 553.428C475.925 578.311 448.604 645.958 471.593 717.479L581.723 1018.75" stroke="white" stroke-opacity="0.06" stroke-linecap="round"/>
<path d="M492.459 553.428C475.925 578.311 448.604 645.958 471.593 717.479L581.723 1018.75" stroke="url(#paint17_linear_502_66)" stroke-linecap="round"/>
<path d="M496.315 546.428C478.874 569.682 448.659 633.939 467.326 704.936L558.932 1004.78" stroke="white" stroke-opacity="0.06" stroke-linecap="round"/>
<path d="M496.315 546.428C478.874 569.682 448.659 633.939 467.326 704.936L558.932 1004.78" stroke="url(#paint18_linear_502_66)" stroke-linecap="round"/>
<path d="M499.702 540.05C481.49 561.674 448.681 622.486 463.134 692.738L536.61 990.193" stroke="white" stroke-opacity="0.06" stroke-linecap="round"/>
<path d="M499.702 540.05C481.49 561.674 448.681 622.486 463.134 692.738L536.61 990.193" stroke="url(#paint19_linear_502_66)" stroke-linecap="round"/>
<path d="M502.583 534.249C483.737 554.253 448.634 611.585 458.993 680.884L514.795 975.024" stroke="white" stroke-opacity="0.06" stroke-linecap="round"/>
<path d="M502.583 534.249C483.737 554.253 448.634 611.585 458.993 680.884L514.795 975.024" stroke="url(#paint20_linear_502_66)" stroke-linecap="round"/>
<path d="M504.926 528.981C485.578 547.382 448.479 601.221 454.876 669.371L493.517 959.322" stroke="white" stroke-opacity="0.06" stroke-linecap="round"/>
<path d="M504.926 528.981C485.578 547.382 448.479 601.221 454.876 669.371L493.517 959.322" stroke="url(#paint21_linear_502_66)" stroke-linecap="round"/>
<path d="M549.783 1018.81C581.309 1040.7 665.533 1081.07 750.22 1067.41L1077.75 1002.51" stroke="white" stroke-opacity="0.06" stroke-linecap="round"/>
<path d="M549.783 1018.81C581.309 1040.7 665.533 1081.07 750.22 1067.41L1077.75 1002.51" stroke="url(#paint22_linear_502_66)" stroke-linecap="round"/>
<path d="M540.024 1008.81C569.604 1031.59 649.828 1074.86 734.091 1065.66L1071.69 1017.13" stroke="white" stroke-opacity="0.06" stroke-linecap="round"/>
<path d="M540.024 1008.81C569.604 1031.59 649.828 1074.86 734.091 1065.66L1071.69 1017.13" stroke="url(#paint23_linear_502_66)" stroke-linecap="round"/>
<path d="M531.047 999.341C558.661 1022.87 634.781 1068.72 718.352 1063.85L1071.18 1029.67" stroke="white" stroke-opacity="0.06" stroke-linecap="round"/>
<path d="M531.047 999.341C558.661 1022.87 634.781 1068.72 718.352 1063.85L1071.18 1029.67" stroke="url(#paint24_linear_502_66)" stroke-linecap="round"/>
<path d="M522.805 990.436C548.446 1014.58 620.383 1062.69 703.005 1062.01L1052.72 1045.97" stroke="white" stroke-opacity="0.06" stroke-linecap="round"/>
<path d="M522.805 990.436C548.446 1014.58 620.383 1062.69 703.005 1062.01L1052.72 1045.97" stroke="url(#paint25_linear_502_66)" stroke-linecap="round"/>
<path d="M515.25 982.124C538.92 1006.73 606.618 1056.8 688.046 1060.17L1033.58 1061.68" stroke="white" stroke-opacity="0.06" stroke-linecap="round"/>
<path d="M515.25 982.124C538.92 1006.73 606.618 1056.8 688.046 1060.17L1033.58 1061.68" stroke="url(#paint26_linear_502_66)" stroke-linecap="round"/>
<path d="M508.329 974.433C530.042 999.382 593.469 1051.09 673.474 1058.35L1013.8 1076.76" stroke="white" stroke-opacity="0.06" stroke-linecap="round"/>
<path d="M508.329 974.433C530.042 999.382 593.469 1051.09 673.474 1058.35L1013.8 1076.76" stroke="url(#paint27_linear_502_66)" stroke-linecap="round"/>
<path d="M501.993 967.384C521.771 992.542 580.919 1045.6 659.283 1056.57L993.442 1091.2" stroke="white" stroke-opacity="0.06" stroke-linecap="round"/>
<path d="M501.993 967.384C521.771 992.542 580.919 1045.6 659.283 1056.57L993.442 1091.2" stroke="url(#paint28_linear_502_66)" stroke-linecap="round"/>
<path d="M496.187 960.998C514.063 986.24 568.946 1040.35 645.468 1054.85L972.551 1104.98" stroke="white" stroke-opacity="0.06" stroke-linecap="round"/>
<path d="M496.187 960.998C514.063 986.24 568.946 1040.35 645.468 1054.85L972.551 1104.98" stroke="url(#paint29_linear_502_66)" stroke-linecap="round"/>
<path d="M490.857 955.291C506.873 980.497 557.527 1035.37 632.02 1053.21L951.183 1118.08" stroke="white" stroke-opacity="0.06" stroke-linecap="round"/>
<path d="M490.857 955.291C506.873 980.497 557.527 1035.37 632.02 1053.21L951.183 1118.08" stroke="url(#paint30_linear_502_66)" stroke-linecap="round"/>
<path d="M492.076 958.957C506.28 984.014 546.637 1030.69 618.931 1051.68L929.393 1130.49" stroke="white" stroke-opacity="0.06" stroke-linecap="round"/>
<path d="M492.076 958.957C506.28 984.014 546.637 1030.69 618.931 1051.68L929.393 1130.49" stroke="url(#paint31_linear_502_66)" stroke-linecap="round"/>
<path d="M493.585 961.012C506.037 985.812 536.251 1026.34 606.189 1050.28L907.236 1142.21" stroke="white" stroke-opacity="0.06" stroke-linecap="round"/>
<path d="M493.585 961.012C506.037 985.812 536.251 1026.34 606.189 1050.28L907.236 1142.21" stroke="url(#paint32_linear_502_66)" stroke-linecap="round"/>
<path d="M986.343 1109C1017.86 1091.14 1084.02 1035.53 1096.48 955.99L1134.22 615.611" stroke="white" stroke-opacity="0.06" stroke-linecap="round"/>
<path d="M986.343 1109C1017.86 1091.14 1084.02 1035.53 1096.48 955.99L1134.22 615.611" stroke="url(#paint33_linear_502_66)" stroke-linecap="round"/>
<path d="M973.376 1113.12C1005.19 1097.34 1073 1046.47 1089.77 969.241L1146.34 637.904" stroke="white" stroke-opacity="0.06" stroke-linecap="round"/>
<path d="M973.376 1113.12C1005.19 1097.34 1073 1046.47 1089.77 969.241L1146.34 637.904" stroke="url(#paint34_linear_502_66)" stroke-linecap="round"/>
<path d="M961.177 1116.8C993.127 1103.05 1062.25 1056.87 1083.12 982.131L1157.69 660.647" stroke="white" stroke-opacity="0.06" stroke-linecap="round"/>
<path d="M961.177 1116.8C993.127 1103.05 1062.25 1056.87 1083.12 982.131L1157.69 660.647" stroke="url(#paint35_linear_502_66)" stroke-linecap="round"/>
<path d="M949.766 1120.08C981.714 1108.32 1051.8 1066.76 1076.57 994.668L1168.24 683.783" stroke="white" stroke-opacity="0.06" stroke-linecap="round"/>
<path d="M949.766 1120.08C981.714 1108.32 1051.8 1066.76 1076.57 994.668L1168.24 683.783" stroke="url(#paint36_linear_502_66)" stroke-linecap="round"/>
<path d="M939.157 1123.03C970.968 1113.18 1041.7 1076.16 1070.13 1006.86L1178 707.256" stroke="white" stroke-opacity="0.06" stroke-linecap="round"/>
<path d="M939.157 1123.03C970.968 1113.18 1041.7 1076.16 1070.13 1006.86L1178 707.256" stroke="url(#paint37_linear_502_66)" stroke-linecap="round"/>
<path d="M929.363 1125.69C960.908 1117.69 1031.96 1085.1 1063.82 1018.73L1186.94 731.013" stroke="white" stroke-opacity="0.06" stroke-linecap="round"/>
<path d="M929.363 1125.69C960.908 1117.69 1031.96 1085.1 1063.82 1018.73L1186.94 731.013" stroke="url(#paint38_linear_502_66)" stroke-linecap="round"/>
<path d="M920.388 1128.13C951.546 1121.9 1022.62 1093.61 1057.68 1030.29L1195.06 754.995" stroke="white" stroke-opacity="0.06" stroke-linecap="round"/>
<path d="M920.388 1128.13C951.546 1121.9 1022.62 1093.61 1057.68 1030.29L1195.06 754.995" stroke="url(#paint39_linear_502_66)" stroke-linecap="round"/>
<path d="M912.237 1130.39C942.893 1125.85 1013.71 1101.73 1051.71 1041.54L1202.36 779.151" stroke="white" stroke-opacity="0.06" stroke-linecap="round"/>
<path d="M912.237 1130.39C942.893 1125.85 1013.71 1101.73 1051.71 1041.54L1202.36 779.151" stroke="url(#paint40_linear_502_66)" stroke-linecap="round"/>
<path d="M904.909 1132.54C934.957 1129.6 1005.23 1109.48 1045.94 1052.52L1208.84 803.425" stroke="white" stroke-opacity="0.06" stroke-linecap="round"/>
<path d="M904.909 1132.54C934.957 1129.6 1005.23 1109.48 1045.94 1052.52L1208.84 803.425" stroke="url(#paint41_linear_502_66)" stroke-linecap="round"/>
<path d="M898.398 1134.62C927.74 1133.19 997.216 1116.91 1040.39 1063.23L1214.5 827.766" stroke="white" stroke-opacity="0.06" stroke-linecap="round"/>
<path d="M898.398 1134.62C927.74 1133.19 997.216 1116.91 1040.39 1063.23L1214.5 827.766" stroke="url(#paint42_linear_502_66)" stroke-linecap="round"/>
<path d="M892.696 1136.68C921.242 1136.66 989.681 1124.04 1035.07 1073.69L1214.69 850.696" stroke="white" stroke-opacity="0.06" stroke-linecap="round"/>
<path d="M892.696 1136.68C921.242 1136.66 989.681 1124.04 1035.07 1073.69L1214.69 850.696" stroke="url(#paint43_linear_502_66)" stroke-linecap="round"/>
<path d="M1213.42 764.935C1205.79 729.703 1171.83 647.659 1096.95 601.345L771.579 416.616" stroke="white" stroke-opacity="0.06" stroke-linecap="round"/>
<path d="M1213.42 764.935C1205.79 729.703 1171.83 647.659 1096.95 601.345L771.579 416.616" stroke="url(#paint44_linear_502_66)" stroke-linecap="round"/>
<path d="M1213.36 777.99C1207.89 743.438 1179.15 662.081 1107.94 613.07L797.555 416.104" stroke="white" stroke-opacity="0.06" stroke-linecap="round"/>
<path d="M1213.36 777.99C1207.89 743.438 1179.15 662.081 1107.94 613.07L797.555 416.104" stroke="url(#paint45_linear_502_66)" stroke-linecap="round"/>
<path d="M1213.1 790.18C1209.69 756.415 1186.02 676.023 1118.6 624.576L823.731 416.457" stroke="white" stroke-opacity="0.06" stroke-linecap="round"/>
<path d="M1213.1 790.18C1209.69 756.415 1186.02 676.023 1118.6 624.576L823.731 416.457" stroke="url(#paint46_linear_502_66)" stroke-linecap="round"/>
<path d="M1212.71 801.512C1211.26 768.633 1192.48 689.469 1128.93 635.844L850.045 417.666" stroke="white" stroke-opacity="0.06" stroke-linecap="round"/>
<path d="M1212.71 801.512C1211.26 768.633 1192.48 689.469 1128.93 635.844L850.045 417.666" stroke="url(#paint47_linear_502_66)" stroke-linecap="round"/>
<path d="M1212.24 811.999C1212.65 780.096 1198.56 702.403 1138.96 646.862L876.437 419.721" stroke="white" stroke-opacity="0.06" stroke-linecap="round"/>
<path d="M1212.24 811.999C1212.65 780.096 1198.56 702.403 1138.96 646.862L876.437 419.721" stroke="url(#paint48_linear_502_66)" stroke-linecap="round"/>
<path d="M1211.74 821.657C1213.9 790.809 1204.31 714.814 1148.71 657.615L902.848 422.605" stroke="white" stroke-opacity="0.06" stroke-linecap="round"/>
<path d="M1211.74 821.657C1213.9 790.809 1204.31 714.814 1148.71 657.615L902.848 422.605" stroke="url(#paint49_linear_502_66)" stroke-linecap="round"/>
<path d="M1211.29 830.505C1215.08 800.784 1209.77 726.692 1158.2 668.091L929.222 426.3" stroke="white" stroke-opacity="0.06" stroke-linecap="round"/>
<path d="M1211.29 830.505C1215.08 800.784 1209.77 726.692 1158.2 668.091L929.222 426.3" stroke="url(#paint50_linear_502_66)" stroke-linecap="round"/>
<path d="M1210.93 838.563C1216.23 810.031 1214.96 738.029 1167.45 678.279L955.503 430.784" stroke="white" stroke-opacity="0.06" stroke-linecap="round"/>
<path d="M1210.93 838.563C1216.23 810.031 1214.96 738.029 1167.45 678.279L955.503 430.784" stroke="url(#paint51_linear_502_66)" stroke-linecap="round"/>
<path d="M1210.71 845.857C1217.41 818.567 1219.94 748.823 1176.49 688.17L981.64 436.032" stroke="white" stroke-opacity="0.06" stroke-linecap="round"/>
<path d="M1210.71 845.857C1217.41 818.567 1219.94 748.823 1176.49 688.17L981.64 436.032" stroke="url(#paint52_linear_502_66)" stroke-linecap="round"/>
<path d="M1210.69 852.415C1218.66 826.409 1224.73 759.069 1185.33 697.756L1007.58 442.016" stroke="white" stroke-opacity="0.06" stroke-linecap="round"/>
<path d="M1210.69 852.415C1218.66 826.409 1224.73 759.069 1185.33 697.756L1007.58 442.016" stroke="url(#paint53_linear_502_66)" stroke-linecap="round"/>
<path d="M1210.91 858.267C1220.02 833.58 1229.39 768.77 1194 707.032L1033.28 448.706" stroke="white" stroke-opacity="0.06" stroke-linecap="round"/>
<path d="M1210.91 858.267C1220.02 833.58 1229.39 768.77 1194 707.032L1033.28 448.706" stroke="url(#paint54_linear_502_66)" stroke-linecap="round"/>
<path opacity="0.01" d="M767.972 744.122C769.171 681.384 776.628 624.754 787.681 583.929C793.212 563.501 799.613 547.143 806.511 535.969C813.49 524.664 820.579 519.282 827.311 519.389C834.044 519.497 840.923 525.101 847.466 536.622C853.932 548.009 859.705 564.562 864.452 585.153C873.938 626.306 879.228 683.139 878.029 745.877C876.831 808.616 869.373 865.246 858.32 906.071C852.79 926.499 846.388 942.857 839.491 954.031C832.512 965.336 825.423 970.718 818.69 970.61C811.958 970.503 805.078 964.898 798.536 953.378C792.069 941.991 786.297 925.438 781.55 904.847C772.063 863.694 766.774 806.861 767.972 744.122Z" stroke="url(#paint55_linear_502_66)" stroke-width="4"/>
<path opacity="0.0204082" d="M769.174 734.548C783.228 674.139 802.172 620.726 821.4 583.212C831.022 564.441 840.661 549.755 849.723 540.166C858.888 530.466 866.949 526.502 873.54 527.782C880.13 529.062 885.729 535.679 889.784 547.945C893.792 560.073 896.061 577.071 896.493 597.794C897.357 639.21 890.883 695.044 876.828 755.453C862.773 815.861 843.829 869.274 824.601 906.788C814.98 925.559 805.34 940.245 796.279 949.834C787.113 959.534 779.052 963.498 772.462 962.218C765.872 960.939 760.272 954.322 756.218 942.055C752.209 929.927 749.941 912.929 749.509 892.206C748.645 850.791 755.119 794.956 769.174 734.548Z" stroke="url(#paint56_linear_502_66)" stroke-width="4"/>
<path opacity="0.0408163" d="M772.363 725.363C798.354 669.424 827.724 621.116 854.157 588.238C867.384 571.786 879.803 559.29 890.624 551.62C901.572 543.86 910.267 541.461 916.456 543.861C922.645 546.261 926.796 553.642 928.291 566.227C929.769 578.666 928.556 595.508 924.791 615.629C917.265 655.84 899.63 708.698 873.639 764.637C847.648 820.577 818.278 868.884 791.844 901.763C778.618 918.214 766.199 930.711 755.378 938.38C744.43 946.14 735.734 948.539 729.546 946.139C723.357 943.74 719.205 936.358 717.71 923.773C716.232 911.334 717.445 894.492 721.211 874.372C728.737 834.161 746.372 781.303 772.363 725.363Z" stroke="url(#paint57_linear_502_66)" stroke-width="4"/>
<path opacity="0.0612245" d="M777.418 716.911C814.012 667.348 852.386 625.786 884.807 598.653C901.031 585.076 915.674 575.188 927.79 569.692C940.056 564.129 949.024 563.373 954.574 566.793C960.125 570.213 962.717 578.093 961.665 590.567C960.627 602.889 956.076 618.996 948.375 637.824C932.983 675.452 905.178 723.526 868.584 773.089C831.99 822.653 793.616 864.214 761.195 891.347C744.971 904.924 730.328 914.812 718.212 920.308C705.946 925.872 696.978 926.628 691.428 923.208C685.878 919.788 683.285 911.908 684.337 899.433C685.375 887.112 689.926 871.004 697.627 852.176C713.019 814.549 740.824 766.475 777.418 716.911Z" stroke="url(#paint58_linear_502_66)" stroke-width="4"/>
<path opacity="0.0816327" d="M784.146 709.503C829.657 667.926 875.317 634.447 912.314 613.919C930.826 603.647 947.068 596.675 959.973 593.518C973.051 590.318 981.923 591.212 986.63 595.512C991.337 599.813 992.316 607.918 988.813 619.865C985.357 631.656 977.726 646.493 966.482 663.406C944.012 697.205 907.366 738.919 861.855 780.497C816.345 822.074 770.684 855.553 733.688 876.081C715.175 886.353 698.934 893.325 686.028 896.482C672.951 899.682 664.079 898.788 659.372 894.488C654.664 890.187 653.686 882.082 657.188 870.135C660.645 858.344 668.276 843.507 679.52 826.594C701.99 792.795 738.636 751.081 784.146 709.503Z" stroke="url(#paint59_linear_502_66)" stroke-width="4"/>
<path opacity="0.102041" d="M792.294 703.41C844.758 671.081 895.764 646.675 935.786 633.333C955.812 626.657 972.978 622.788 986.147 622.038C999.503 621.276 1007.92 623.755 1011.62 628.768C1015.32 633.781 1014.69 641.841 1008.91 652.87C1003.22 663.743 992.859 676.834 978.581 691.297C950.048 720.199 906.171 754.262 853.708 786.59C801.244 818.919 750.238 843.325 710.217 856.667C690.19 863.344 673.024 867.212 659.856 867.963C646.499 868.724 638.08 866.245 634.379 861.232C630.678 856.219 631.316 848.159 637.092 837.131C642.787 826.257 653.143 813.166 667.421 798.704C695.954 769.801 739.831 735.739 792.294 703.41Z" stroke="url(#paint60_linear_502_66)" stroke-width="4"/>
<path opacity="0.122449" d="M801.557 698.848C858.815 676.644 913.083 661.927 954.507 656.058C975.236 653.121 992.634 652.418 1005.54 654.046C1018.64 655.698 1026.28 659.635 1028.85 665.174C1031.42 670.713 1029.22 678.468 1021.42 688.223C1013.74 697.835 1001.1 708.78 984.385 720.362C950.988 743.508 901.702 768.947 844.444 791.151C787.186 813.355 732.919 828.073 691.494 833.942C670.766 836.878 653.368 837.582 640.463 835.954C627.365 834.302 619.725 830.365 617.152 824.826C614.578 819.287 616.786 811.532 624.583 801.777C632.266 792.165 644.905 781.22 661.617 769.638C695.014 746.492 744.3 721.052 801.557 698.848Z" stroke="url(#paint61_linear_502_66)" stroke-width="4"/>
<path opacity="0.142857" d="M811.596 695.979C871.381 684.37 926.769 679.568 967.965 681.162C988.58 681.96 1005.53 684.356 1017.66 688.24C1029.98 692.183 1036.56 697.394 1037.92 703.265C1039.29 709.137 1035.6 716.339 1026.1 724.52C1016.75 732.578 1002.33 741.063 983.854 749.452C946.929 766.217 894.192 782.412 834.406 794.021C774.621 805.631 719.233 810.432 678.037 808.838C657.422 808.04 640.475 805.644 628.339 801.76C616.019 797.817 609.445 792.607 608.079 786.735C606.713 780.864 610.399 773.661 619.898 765.481C629.256 757.423 643.671 748.937 662.148 740.548C699.073 723.784 751.81 707.589 811.596 695.979Z" stroke="url(#paint62_linear_502_66)" stroke-width="4"/>
<path opacity="0.163265" d="M822.044 694.9C882.072 693.943 936.464 698.9 975.86 707.657C995.574 712.039 1011.42 717.348 1022.32 723.277C1033.39 729.294 1038.66 735.553 1038.78 741.559C1038.89 747.566 1033.86 753.989 1023.03 760.355C1012.36 766.628 996.728 772.44 977.194 777.447C938.156 787.455 883.987 794.143 823.958 795.1C763.93 796.057 709.538 791.1 670.142 782.344C650.428 777.962 634.581 772.652 623.678 766.723C612.613 760.706 607.339 754.448 607.225 748.441C607.11 742.435 612.141 736.012 622.969 729.645C633.639 723.372 649.274 717.561 668.809 712.553C707.847 702.546 762.016 695.857 822.044 694.9Z" stroke="url(#paint63_linear_502_66)" stroke-width="4"/>
<path opacity="0.183673" d="M832.526 695.648C890.582 705 941.97 719.191 978.111 734.539C996.196 742.219 1010.36 750.145 1019.62 757.83C1029.02 765.621 1032.81 772.671 1031.67 778.613C1030.52 784.556 1024.32 789.995 1012.57 794.381C1000.98 798.706 984.71 801.73 964.84 803.296C925.133 806.426 871.532 803.704 813.476 794.352C755.42 785 704.032 770.809 667.891 755.461C649.806 747.781 635.645 739.854 626.378 732.17C616.982 724.379 613.19 717.329 614.337 711.387C615.484 705.444 621.687 700.005 633.432 695.619C645.017 691.294 661.292 688.27 681.162 686.704C720.869 683.574 774.47 686.296 832.526 695.648Z" stroke="url(#paint64_linear_502_66)" stroke-width="4"/>
<path opacity="0.204082" d="M842.667 698.197C896.687 717.141 943.245 739.706 974.847 760.834C990.661 771.407 1002.63 781.557 1009.94 790.645C1017.33 799.843 1019.52 807.404 1017.13 813.081C1014.75 818.757 1007.59 823.038 995.354 825.354C983.27 827.643 966.938 827.867 947.442 826.057C908.482 822.44 857.356 810.747 803.336 791.803C749.316 772.858 702.758 750.294 671.155 729.166C655.341 718.593 643.368 708.443 636.064 699.355C628.671 690.157 626.482 682.596 628.867 676.919C631.253 671.243 638.417 666.962 650.648 664.646C662.732 662.357 679.064 662.133 698.56 663.943C737.521 667.56 788.646 679.253 842.667 698.197Z" stroke="url(#paint65_linear_502_66)" stroke-width="4"/>
<path opacity="0.22449" d="M852.097 702.461C900.243 729.946 940.393 759.731 966.393 785.628C979.403 798.587 988.789 810.492 993.89 820.581C999.044 830.772 999.563 838.552 996.001 843.76C992.439 848.967 984.557 851.952 972.272 852.188C960.11 852.421 944.283 849.934 925.831 844.931C888.955 834.935 842.051 815.024 793.905 787.539C745.759 760.054 705.609 730.269 679.609 704.372C666.599 691.413 657.213 679.508 652.112 669.419C646.958 659.228 646.439 651.448 650.001 646.24C653.563 641.033 661.444 638.048 673.73 637.812C685.892 637.579 701.718 640.067 720.171 645.069C757.047 655.065 803.951 674.976 852.097 702.461Z" stroke="url(#paint66_linear_502_66)" stroke-width="4"/>
<path opacity="0.244898" d="M860.471 708.291C901.194 742.983 933.66 778.6 953.248 808.1C963.049 822.861 969.562 835.996 972.318 846.655C975.096 857.4 973.936 865.099 969.303 869.638C964.67 874.177 956.343 875.771 944.417 873.989C932.586 872.221 917.79 867.202 900.987 859.299C867.409 843.505 826.253 816.402 785.53 781.709C744.808 747.017 712.342 711.4 692.754 681.9C682.952 667.138 676.44 654.004 673.684 643.345C670.906 632.6 672.066 624.901 676.699 620.362C681.332 615.823 689.658 614.228 701.585 616.011C713.416 617.779 728.212 622.798 745.014 630.701C778.592 646.495 819.749 673.598 860.471 708.291Z" stroke="url(#paint67_linear_502_66)" stroke-width="4"/>
<path opacity="0.265306" d="M867.479 715.478C899.564 755.824 923.412 795.711 936.057 827.545C942.385 843.474 945.864 857.28 946.229 868.067C946.596 878.92 943.81 886.241 938.257 889.927C932.704 893.612 924.223 893.771 913.037 890.098C901.92 886.448 888.623 879.158 873.996 868.738C844.763 847.914 810.61 814.868 778.524 774.522C746.438 734.176 722.59 694.29 709.945 662.456C703.617 646.526 700.138 632.72 699.773 621.933C699.406 611.08 702.192 603.759 707.745 600.074C713.298 596.388 721.78 596.229 732.965 599.902C744.082 603.553 757.379 610.842 772.007 621.262C801.239 642.087 835.393 675.132 867.479 715.478Z" stroke="url(#paint68_linear_502_66)" stroke-width="4"/>
<path opacity="0.285714" d="M872.854 723.762C895.461 768.055 910.121 810.542 915.585 843.394C918.318 859.832 918.73 873.744 916.756 884.225C914.773 894.753 910.474 901.407 904.199 904.08C897.923 906.754 889.58 905.485 879.478 900.105C869.421 894.75 858.02 885.52 845.994 873.04C821.959 848.1 795.756 810.53 773.148 766.238C750.54 721.945 735.88 679.458 730.417 646.606C727.683 630.168 727.272 616.256 729.246 605.775C731.229 595.247 735.527 588.593 741.803 585.919C748.079 583.246 756.421 584.515 766.524 589.895C776.581 595.25 787.982 604.48 800.008 616.959C824.043 641.9 850.246 679.47 872.854 723.762Z" stroke="url(#paint69_linear_502_66)" stroke-width="4"/>
<path opacity="0.306122" d="M876.394 732.838C889.071 779.29 894.349 822.673 892.681 855.233C891.846 871.524 889.278 884.991 885.109 894.754C880.925 904.549 875.292 910.273 868.527 911.814C861.762 913.355 853.847 910.717 845.119 903.862C836.421 897.031 827.233 886.242 818.124 872.215C799.919 844.182 782.286 803.613 769.608 757.162C756.931 710.71 751.653 667.327 753.321 634.767C754.156 618.476 756.724 605.009 760.893 595.246C765.077 585.451 770.71 579.727 777.475 578.186C784.24 576.645 792.155 579.283 800.883 586.138C809.581 592.969 818.769 603.758 827.878 617.785C846.083 645.818 863.716 686.386 876.394 732.838Z" stroke="url(#paint70_linear_502_66)" stroke-width="4"/>
<path opacity="0.326531" d="M877.962 742.369C880.648 789.183 876.717 831.787 868.246 862.803C864.007 878.321 858.662 890.827 852.525 899.501C846.372 908.197 839.637 912.762 832.644 913.097C825.651 913.431 818.431 909.535 811.316 901.474C804.221 893.434 797.474 881.507 791.483 866.478C779.509 836.441 770.726 794.446 768.04 747.632C765.355 700.817 769.285 658.214 777.756 627.198C781.995 611.679 787.34 599.173 793.477 590.499C799.63 581.803 806.365 577.239 813.358 576.904C820.352 576.569 827.572 580.465 834.686 588.526C841.782 596.567 848.529 608.493 854.519 623.522C866.493 653.559 875.277 695.554 877.962 742.369Z" stroke="url(#paint71_linear_502_66)" stroke-width="4"/>
<path opacity="0.346939" d="M877.499 751.997C870.509 797.437 857.89 837.683 843.198 866.008C835.848 880.179 828.031 891.263 820.227 898.529C812.406 905.811 804.853 909.037 797.903 908.145C790.954 907.252 784.667 902.25 779.346 893.28C774.036 884.33 769.866 871.708 767.076 856.234C761.5 825.307 761.512 783.443 768.503 738.003C775.493 692.563 788.112 652.317 802.803 623.992C810.154 609.821 817.97 598.737 825.775 591.47C833.596 584.189 841.149 580.963 848.098 581.855C855.048 582.747 861.335 587.75 866.656 596.719C871.966 605.669 876.135 618.292 878.925 633.766C884.502 664.693 884.489 706.557 877.499 751.997Z" stroke="url(#paint72_linear_502_66)" stroke-width="4"/>
<path opacity="0.367347" d="M875.022 761.364C859.022 803.816 838.549 840.276 818.444 864.908C808.385 877.232 798.491 886.504 789.379 892.108C780.248 897.723 772.195 899.488 765.561 897.401C758.927 895.314 753.771 889.394 750.359 879.833C746.955 870.292 745.407 857.421 745.785 842.052C746.542 811.334 754.979 771.087 770.979 728.636C786.979 686.184 807.453 649.724 827.558 625.092C837.617 612.768 847.51 603.496 856.623 597.892C865.754 592.277 873.807 590.512 880.441 592.599C887.075 594.686 892.231 600.606 895.642 610.167C899.047 619.708 900.595 632.579 900.216 647.948C899.46 678.666 891.022 718.913 875.022 761.364Z" stroke="url(#paint73_linear_502_66)" stroke-width="4"/>
<path opacity="0.387755" d="M870.627 770.121C846.595 808.149 819.371 839.598 794.843 859.715C782.571 869.781 771.065 876.934 761.049 880.693C751.011 884.46 742.796 884.708 736.732 881.509C730.667 878.311 726.795 871.687 725.347 861.862C723.902 852.057 724.93 839.378 728.335 824.636C735.142 795.172 751.342 757.907 775.375 719.879C799.407 681.851 826.631 650.402 851.159 630.285C863.431 620.219 874.937 613.066 884.953 609.307C894.991 605.54 903.206 605.292 909.27 608.491C915.335 611.69 919.207 618.313 920.655 628.138C922.1 637.943 921.072 650.622 917.667 665.364C910.86 694.829 894.66 732.093 870.627 770.121Z" stroke="url(#paint74_linear_502_66)" stroke-width="4"/>
<path opacity="0.408163" d="M864.481 777.942C833.655 810.339 801.002 835.793 773.184 850.78C759.266 858.279 746.663 863.1 736.173 864.911C725.659 866.726 717.623 865.467 712.355 861.284C707.087 857.1 704.604 850.005 705.109 840.24C705.611 830.499 709.084 818.426 715.275 804.791C727.648 777.539 750.695 744.455 781.521 712.058C812.347 679.661 845.001 654.207 872.818 639.22C886.737 631.721 899.34 626.9 909.829 625.089C920.344 623.274 928.38 624.533 933.647 628.716C938.915 632.9 941.398 639.995 940.894 649.76C940.391 659.501 936.919 671.574 930.728 685.209C918.354 712.461 895.307 745.545 864.481 777.942Z" stroke="url(#paint75_linear_502_66)" stroke-width="4"/>
<path opacity="0.428571" d="M856.816 784.541C820.64 810.363 784.037 829.109 754.154 838.577C739.202 843.313 726.046 845.691 715.525 845.532C704.975 845.372 697.444 842.68 693.162 837.674C688.881 832.667 687.844 825.341 690.227 815.95C692.603 806.585 698.311 795.498 706.959 783.39C724.243 759.191 753.008 731.28 789.185 705.459C825.362 679.637 861.964 660.89 891.847 651.423C906.799 646.686 919.956 644.309 930.477 644.468C941.027 644.628 948.557 647.32 952.839 652.326C957.12 657.332 958.157 664.659 955.775 674.05C953.398 683.414 947.691 694.502 939.042 706.61C921.758 730.809 892.993 758.72 856.816 784.541Z" stroke="url(#paint76_linear_502_66)" stroke-width="4"/>
<path opacity="0.44898" d="M847.921 789.682C807.977 808.275 769.001 819.892 738.317 823.684C722.964 825.582 709.805 825.505 699.685 823.436C689.535 821.36 682.806 817.367 679.659 811.725C676.512 806.082 676.931 798.762 681.059 790.04C685.175 781.343 692.842 771.572 703.546 761.34C724.94 740.891 758.137 718.912 798.081 700.319C838.024 681.725 877.001 670.108 907.684 666.316C923.037 664.419 936.196 664.495 946.317 666.565C956.467 668.64 963.196 672.633 966.343 678.276C969.49 683.919 969.071 691.239 964.942 699.961C960.826 708.657 953.16 718.428 942.455 728.66C921.062 749.109 887.864 771.088 847.921 789.682Z" stroke="url(#paint77_linear_502_66)" stroke-width="4"/>
<path opacity="0.469388" d="M838.123 793.181C796.069 804.197 756.323 808.561 726.091 806.758C710.964 805.855 698.337 803.416 689.023 799.573C679.682 795.719 674.012 790.607 672.104 784.529C670.196 778.451 672.04 771.371 677.726 763.581C683.396 755.813 692.689 747.631 704.994 739.543C729.586 723.378 765.824 707.836 807.878 696.819C849.932 685.803 889.678 681.439 919.91 683.242C935.037 684.145 947.665 686.584 956.978 690.427C966.319 694.281 971.989 699.393 973.897 705.471C975.805 711.548 973.961 718.629 968.275 726.419C962.606 734.187 953.312 742.369 941.007 750.457C916.415 766.622 880.177 782.164 838.123 793.181Z" stroke="url(#paint78_linear_502_66)" stroke-width="4"/>
<path opacity="0.489796" d="M827.781 794.919C785.279 798.316 746.33 795.593 717.738 788.499C703.432 784.949 691.832 780.332 683.689 774.925C675.524 769.504 671.119 763.492 670.516 757.188C669.912 750.884 673.107 744.265 680.117 737.63C687.109 731.014 697.655 724.627 711.069 718.862C737.878 707.34 775.719 698.479 818.22 695.082C860.722 691.685 899.672 694.408 928.264 701.502C942.57 705.051 954.17 709.668 962.313 715.075C970.478 720.497 974.883 726.509 975.486 732.812C976.09 739.116 972.895 745.735 965.885 752.37C958.893 758.987 948.347 765.373 934.933 771.139C908.124 782.661 870.283 791.521 827.781 794.919Z" stroke="url(#paint79_linear_502_66)" stroke-width="4"/>
<path opacity="0.510204" d="M817.267 794.835C775.918 790.865 739.233 781.497 713.359 769.622C700.413 763.68 690.277 757.157 683.61 750.454C676.928 743.737 673.945 737.073 674.672 730.757C675.398 724.442 679.833 718.49 687.897 713.189C695.944 707.898 707.343 703.443 721.358 700.09C749.37 693.389 787.385 691.194 828.734 695.165C870.083 699.135 906.768 708.503 932.643 720.378C945.589 726.32 955.724 732.843 962.392 739.546C969.073 746.263 972.056 752.927 971.33 759.243C970.603 765.558 966.169 771.51 958.105 776.811C950.057 782.102 938.659 786.557 924.643 789.91C896.632 796.611 858.617 798.806 817.267 794.835Z" stroke="url(#paint80_linear_502_66)" stroke-width="4"/>
<path opacity="0.530612" d="M806.96 792.934C768.243 782.12 735.135 766.796 712.902 750.826C701.779 742.836 693.468 734.749 688.512 727.065C683.55 719.373 682.089 712.324 684.134 706.213C686.179 700.103 691.705 695.005 700.527 691.163C709.339 687.325 721.179 684.866 735.291 683.925C763.498 682.043 800.326 686.252 839.042 697.066C877.759 707.88 910.867 723.204 933.1 739.174C944.223 747.164 952.534 755.252 957.49 762.935C962.452 770.627 963.913 777.676 961.868 783.787C959.823 789.897 954.297 794.995 945.475 798.837C936.664 802.675 924.824 805.134 910.711 806.076C882.504 807.958 845.677 803.748 806.96 792.934Z" stroke="url(#paint81_linear_502_66)" stroke-width="4"/>
<path opacity="0.55102" d="M797.23 789.28C762.449 772.385 734.027 752 716.173 732.764C707.241 723.141 701.028 713.884 697.94 705.57C694.851 697.254 694.959 690.097 698.269 684.411C701.579 678.724 708.012 674.64 717.286 672.329C726.558 670.018 738.433 669.548 752.16 670.932C779.599 673.698 813.992 683.826 848.772 700.72C883.552 717.615 911.974 738 929.829 757.236C938.761 766.859 944.974 776.116 948.062 784.43C951.15 792.746 951.043 799.903 947.733 805.59C944.423 811.276 937.989 815.36 928.716 817.671C919.444 819.982 907.569 820.452 893.842 819.068C866.402 816.302 832.01 806.175 797.23 789.28Z" stroke="url(#paint82_linear_502_66)" stroke-width="4"/>
<path opacity="0.571429" d="M788.433 783.999C758.674 761.983 735.806 737.594 722.855 716.024C716.377 705.234 712.434 695.238 711.289 686.657C710.146 678.083 711.812 671.103 716.287 666.053C720.763 661.004 727.89 658.064 737.309 657.303C746.734 656.542 758.256 657.987 771.156 661.533C796.942 668.621 827.81 683.986 857.569 706.001C887.328 728.017 910.197 752.406 923.147 773.976C929.625 784.766 933.569 794.762 934.713 803.343C935.857 811.917 934.191 818.897 929.715 823.947C925.239 828.996 918.112 831.936 908.694 832.697C899.269 833.458 887.746 832.013 874.847 828.467C849.06 821.379 818.193 806.014 788.433 783.999Z" stroke="url(#paint83_linear_502_66)" stroke-width="4"/>
<path opacity="0.591837" d="M780.896 777.277C756.989 751.249 740.275 724.024 732.527 701.109C728.651 689.648 727.05 679.357 727.841 670.877C728.631 662.408 731.786 655.883 737.28 651.671C742.775 647.459 750.357 645.754 759.623 646.513C768.902 647.274 779.717 650.502 791.399 655.979C814.755 666.929 841.2 686.694 865.107 712.723C889.013 738.752 905.727 765.976 913.476 788.891C917.351 800.352 918.952 810.643 918.161 819.123C917.371 827.592 914.217 834.117 908.722 838.329C903.227 842.542 895.645 844.247 886.379 843.487C877.1 842.726 866.285 839.498 854.603 834.021C831.247 823.071 804.802 803.306 780.896 777.277Z" stroke="url(#paint84_linear_502_66)" stroke-width="4"/>
<path opacity="0.612245" d="M774.9 769.359C757.403 740.521 747.164 711.686 744.686 688.428C742.188 664.979 747.62 648.008 760.266 641.604C772.912 635.2 791.543 639.985 811.987 654.346C832.264 668.591 853.605 691.804 871.102 720.641C888.599 749.479 898.838 778.314 901.316 801.572C903.813 825.021 898.382 841.992 885.736 848.396C873.09 854.8 854.458 850.015 834.015 835.654C813.738 821.409 792.397 798.196 774.9 769.359Z" stroke="url(#paint85_linear_502_66)" stroke-width="4"/>
<path opacity="0.632653" d="M770.673 760.533C759.861 730.133 756.138 700.912 758.776 678.283C761.433 655.499 770.412 640.103 784.235 636C798.057 631.897 815.227 639.531 832.035 656.537C848.729 673.427 864.517 699.067 875.329 729.467C886.141 759.868 889.865 789.089 887.226 811.718C884.569 834.501 875.59 849.897 861.768 854C847.946 858.103 830.776 850.469 813.968 833.464C797.273 816.574 781.486 790.934 770.673 760.533Z" stroke="url(#paint86_linear_502_66)" stroke-width="4"/>
<path opacity="0.653061" d="M768.377 751.128C764.246 720.397 766.811 691.967 774.206 670.869C781.643 649.65 793.711 636.441 808.192 634.816C822.674 633.192 837.881 643.341 850.716 662.287C863.478 681.124 873.495 708.142 877.625 738.873C881.755 769.604 879.19 798.033 871.796 819.131C864.359 840.351 852.291 853.56 837.81 855.184C823.328 856.808 808.121 846.659 795.286 827.714C782.524 808.876 772.507 781.859 768.377 751.128Z" stroke="url(#paint87_linear_502_66)" stroke-width="4"/>
<path opacity="0.673469" d="M768.099 741.493C770.387 711.603 778.769 685.046 790.376 666.277C802.04 647.413 816.612 636.903 831.203 637.835C845.795 638.767 858.624 651.028 867.301 671.191C875.935 691.253 880.191 718.618 877.903 748.507C875.615 778.397 867.232 804.954 855.626 823.723C843.961 842.587 829.389 853.097 814.798 852.165C800.207 851.233 787.378 838.972 778.701 818.809C770.066 798.747 765.811 771.382 768.099 741.493Z" stroke="url(#paint88_linear_502_66)" stroke-width="4"/>
<path opacity="0.693878" d="M769.85 731.989C778.057 704.008 791.575 680.268 806.698 664.493C821.889 648.645 838.279 641.22 852.424 644.682C866.569 648.145 876.699 662.062 881.182 682.726C885.645 703.295 884.359 730.03 876.152 758.011C867.945 785.992 854.427 809.732 839.305 825.507C824.113 841.355 807.723 848.78 793.578 845.318C779.433 841.855 769.304 827.938 764.82 807.274C760.357 786.705 761.643 759.97 769.85 731.989Z" stroke="url(#paint89_linear_502_66)" stroke-width="4"/>
<path opacity="0.714286" d="M773.564 722.971C786.989 697.824 804.786 677.68 822.61 665.41C840.514 653.085 857.966 648.988 871.128 654.853C884.291 660.718 891.501 675.804 891.893 696.281C892.283 716.667 885.864 741.881 872.439 767.028C859.013 792.175 841.217 812.319 823.392 824.59C805.489 836.914 788.037 841.012 774.874 835.147C761.711 829.282 754.501 814.195 754.11 793.719C753.72 773.332 760.138 748.119 773.564 722.971Z" stroke="url(#paint90_linear_502_66)" stroke-width="4"/>
<path opacity="0.734694" d="M779.097 714.775C796.877 693.218 817.966 677.258 837.599 668.832C857.317 660.369 875.046 659.689 886.732 667.734C898.419 675.78 902.591 691.536 899.121 711.185C895.667 730.749 884.686 753.668 866.905 775.225C849.124 796.782 828.036 812.742 808.403 821.168C788.685 829.631 770.956 830.311 759.269 822.265C747.582 814.22 743.411 798.463 746.881 778.814C750.335 759.251 761.316 736.332 779.097 714.775Z" stroke="url(#paint91_linear_502_66)" stroke-width="4"/>
<path opacity="0.755102" d="M786.24 707.701C807.394 690.3 830.704 678.904 851.21 674.482C871.806 670.041 889.031 672.715 898.812 682.639C908.593 692.563 909.703 708.493 902.716 726.742C895.759 744.911 880.917 764.898 859.762 782.299C838.607 799.701 815.298 811.097 794.792 815.518C774.196 819.959 756.971 817.286 747.19 807.362C737.409 797.438 736.299 781.508 743.286 763.259C750.243 745.09 765.085 725.103 786.24 707.701Z" stroke="url(#paint92_linear_502_66)" stroke-width="4"/>
<path opacity="0.77551" d="M794.724 702.006C818.198 689.12 842.622 682.455 863.068 682.017C883.603 681.577 899.589 687.393 907.111 698.829C914.633 710.265 912.748 725.891 902.683 742.249C892.661 758.536 874.753 775.108 851.278 787.994C827.803 800.88 803.38 807.545 782.934 807.983C762.399 808.423 746.412 802.607 738.891 791.171C731.369 779.734 733.253 764.109 743.319 747.751C753.341 731.464 771.249 714.892 794.724 702.006Z" stroke="url(#paint93_linear_502_66)" stroke-width="4"/>
<path opacity="0.795918" d="M804.234 697.893C828.951 689.674 853.396 687.693 872.891 691.042C892.467 694.405 906.554 703.021 911.549 715.557C916.543 728.093 911.813 742.965 899.184 757.037C886.606 771.051 866.486 783.888 841.769 792.107C817.052 800.326 792.607 802.307 773.112 798.958C753.536 795.595 739.448 786.979 734.454 774.443C729.46 761.908 734.19 747.035 746.819 732.963C759.397 718.949 779.517 706.112 804.234 697.893Z" stroke="url(#paint94_linear_502_66)" stroke-width="4"/>
<path opacity="0.816327" d="M814.42 695.505C839.324 691.901 862.761 694.354 880.495 701.133C898.294 707.937 909.926 718.9 912.213 732.091C914.5 745.283 907.145 758.993 892.519 770.489C877.946 781.943 856.486 790.892 831.582 794.496C806.678 798.099 783.241 795.646 765.507 788.867C747.708 782.063 736.076 771.1 733.789 757.909C731.502 744.717 738.856 731.007 753.483 719.512C768.056 708.058 789.516 699.108 814.42 695.505Z" stroke="url(#paint95_linear_502_66)" stroke-width="4"/>
<path opacity="0.836735" d="M824.915 694.923C849.019 695.692 870.524 702.147 885.803 711.859C901.126 721.599 909.867 734.37 909.355 747.755C908.844 761.14 899.149 773.323 883.119 782.062C867.136 790.777 845.191 795.846 821.087 795.077C796.983 794.308 775.478 787.852 760.199 778.141C744.876 768.401 736.135 755.63 736.647 742.245C737.158 728.86 746.853 716.677 762.883 707.938C778.866 699.223 800.811 694.154 824.915 694.923Z" stroke="url(#paint96_linear_502_66)" stroke-width="4"/>
<path opacity="0.857143" d="M835.341 696.167C857.767 700.897 876.559 710.77 888.833 722.804C901.131 734.862 906.677 748.843 903.364 761.95C900.052 775.057 888.359 785.402 871.52 791.314C854.713 797.215 833.086 798.563 810.66 793.833C788.235 789.103 769.443 779.231 757.169 767.196C744.871 755.138 739.325 741.157 742.637 728.05C745.949 714.943 757.643 704.599 774.482 698.686C791.289 692.785 812.916 691.437 835.341 696.167Z" stroke="url(#paint97_linear_502_66)" stroke-width="4"/>
<path opacity="0.877551" d="M845.324 699.195C865.333 707.334 880.807 719.917 889.692 733.587C898.585 747.27 900.77 761.827 894.748 774.183C888.726 786.54 875.423 794.797 858.341 797.915C841.277 801.029 820.688 798.944 800.678 790.805C780.669 782.666 765.196 770.083 756.311 756.414C747.417 742.731 745.232 728.174 751.254 715.817C757.276 703.46 770.58 695.203 787.661 692.086C804.726 688.971 825.315 691.057 845.324 699.195Z" stroke="url(#paint98_linear_502_66)" stroke-width="4"/>
<path opacity="0.897959" d="M854.5 703.904C871.522 714.793 883.267 729.3 888.556 743.873C893.846 758.45 892.644 772.936 884.099 784.084C875.554 795.232 861.065 801.219 844.263 801.663C827.464 802.107 808.525 796.986 791.503 786.097C774.48 775.208 762.736 760.701 757.447 746.127C752.156 731.551 753.359 717.065 761.903 705.916C770.448 694.768 784.937 688.781 801.74 688.338C818.538 687.894 837.477 693.015 854.5 703.904Z" stroke="url(#paint99_linear_502_66)" stroke-width="4"/>
<path opacity="0.918367" d="M862.53 710.126C889.972 736.086 893.581 772.434 872.065 791.416C850.549 810.398 810.913 805.834 783.472 779.874C756.031 753.913 752.421 717.566 773.937 698.583C795.453 679.601 835.089 684.166 862.53 710.126Z" stroke="url(#paint100_linear_502_66)" stroke-width="4"/>
<path opacity="0.938776" d="M869.116 717.641C889.341 746.093 884.548 781.113 859.314 796.084C834.08 811.055 797.111 800.812 776.886 772.359C756.661 743.907 761.454 708.887 786.688 693.916C811.923 678.944 848.891 689.188 869.116 717.641Z" stroke="url(#paint101_linear_502_66)" stroke-width="4"/>
<path opacity="0.959184" d="M874.008 726.173C887.034 755.626 874.556 787.77 846.496 798.127C818.437 808.484 785.019 793.281 771.993 763.827C758.968 734.374 771.446 702.23 799.505 691.873C827.565 681.516 860.983 696.719 874.008 726.173Z" stroke="url(#paint102_linear_502_66)" stroke-width="4"/>
<path opacity="0.979592" d="M877.021 735.407C883.208 764.487 864.083 792.407 834.216 797.711C804.35 803.014 775.169 783.672 768.981 754.593C762.794 725.513 781.92 697.593 811.786 692.289C841.653 686.986 870.834 706.328 877.021 735.407Z" stroke="url(#paint103_linear_502_66)" stroke-width="4"/>
<path d="M878.038 745C878.038 772.507 853.571 795.108 823.001 795.108C792.431 795.108 767.964 772.507 767.964 745C767.964 717.493 792.431 694.893 823.001 694.893C853.571 694.893 878.038 717.493 878.038 745Z" stroke="url(#paint104_linear_502_66)" stroke-width="4"/>
<defs>
<linearGradient id="paint0_linear_502_66" x1="572.195" y1="567.26" x2="731.575" y2="605.831" gradientUnits="userSpaceOnUse">
<stop stop-color="#FF1CF7"/>
<stop offset="0.177083" stop-color="#00F0FF"/>
</linearGradient>
<linearGradient id="paint1_linear_502_66" x1="581.994" y1="552.583" x2="734.704" y2="599.944" gradientUnits="userSpaceOnUse">
<stop stop-color="#FF1CF7"/>
<stop offset="0.177083" stop-color="#00F0FF"/>
</linearGradient>
<linearGradient id="paint2_linear_502_66" x1="591.977" y1="538.197" x2="737.438" y2="593.64" gradientUnits="userSpaceOnUse">
<stop stop-color="#FF1CF7"/>
<stop offset="0.177083" stop-color="#00F0FF"/>
</linearGradient>
<linearGradient id="paint3_linear_502_66" x1="602.117" y1="524.109" x2="739.831" y2="586.87" gradientUnits="userSpaceOnUse">
<stop stop-color="#FF1CF7"/>
<stop offset="0.177083" stop-color="#00F0FF"/>
</linearGradient>
<linearGradient id="paint4_linear_502_66" x1="647.107" y1="507.884" x2="850.859" y2="616.831" gradientUnits="userSpaceOnUse">
<stop stop-color="#FF1CF7"/>
<stop offset="0.177083" stop-color="#00F0FF"/>
</linearGradient>
<linearGradient id="paint5_linear_502_66" x1="657.563" y1="493.035" x2="845.584" y2="609.427" gradientUnits="userSpaceOnUse">
<stop stop-color="#FF1CF7"/>
<stop offset="0.177083" stop-color="#00F0FF"/>
</linearGradient>
<linearGradient id="paint6_linear_502_66" x1="665.603" y1="480.467" x2="835.084" y2="600.784" gradientUnits="userSpaceOnUse">
<stop stop-color="#FF1CF7"/>
<stop offset="0.177083" stop-color="#00F0FF"/>
</linearGradient>
<linearGradient id="paint7_linear_502_66" x1="676.547" y1="465.899" x2="829.789" y2="589.843" gradientUnits="userSpaceOnUse">
<stop stop-color="#FF1CF7"/>
<stop offset="0.177083" stop-color="#00F0FF"/>
</linearGradient>
<linearGradient id="paint8_linear_502_66" x1="686.672" y1="454.367" x2="825.921" y2="582.142" gradientUnits="userSpaceOnUse">
<stop stop-color="#FF1CF7"/>
<stop offset="0.177083" stop-color="#00F0FF"/>
</linearGradient>
<linearGradient id="paint9_linear_502_66" x1="698.171" y1="440.171" x2="821.365" y2="568.133" gradientUnits="userSpaceOnUse">
<stop stop-color="#FF1CF7"/>
<stop offset="0.177083" stop-color="#00F0FF"/>
</linearGradient>
<linearGradient id="paint10_linear_502_66" x1="707.324" y1="429.303" x2="815.973" y2="556.993" gradientUnits="userSpaceOnUse">
<stop stop-color="#FF1CF7"/>
<stop offset="0.177083" stop-color="#00F0FF"/>
</linearGradient>
<linearGradient id="paint11_linear_502_66" x1="551.36" y1="908.917" x2="633.979" y2="784.067" gradientUnits="userSpaceOnUse">
<stop stop-color="#FF1CF7"/>
<stop offset="0.177083" stop-color="#00F0FF"/>
</linearGradient>
<linearGradient id="paint12_linear_502_66" x1="539.317" y1="894.3" x2="626.271" y2="776.873" gradientUnits="userSpaceOnUse">
<stop stop-color="#FF1CF7"/>
<stop offset="0.177083" stop-color="#00F0FF"/>
</linearGradient>
<linearGradient id="paint13_linear_502_66" x1="527.619" y1="879.641" x2="618.426" y2="769.72" gradientUnits="userSpaceOnUse">
<stop stop-color="#FF1CF7"/>
<stop offset="0.177083" stop-color="#00F0FF"/>
</linearGradient>
<linearGradient id="paint14_linear_502_66" x1="516.265" y1="864.965" x2="610.446" y2="762.617" gradientUnits="userSpaceOnUse">
<stop stop-color="#FF1CF7"/>
<stop offset="0.177083" stop-color="#00F0FF"/>
</linearGradient>
<linearGradient id="paint15_linear_502_66" x1="505.253" y1="850.294" x2="602.328" y2="755.572" gradientUnits="userSpaceOnUse">
<stop stop-color="#FF1CF7"/>
<stop offset="0.177083" stop-color="#00F0FF"/>
</linearGradient>
<linearGradient id="paint16_linear_502_66" x1="494.576" y1="835.651" x2="594.064" y2="748.588" gradientUnits="userSpaceOnUse">
<stop stop-color="#FF1CF7"/>
<stop offset="0.177083" stop-color="#00F0FF"/>
</linearGradient>
<linearGradient id="paint17_linear_502_66" x1="484.232" y1="821.059" x2="585.644" y2="741.67" gradientUnits="userSpaceOnUse">
<stop stop-color="#FF1CF7"/>
<stop offset="0.177083" stop-color="#00F0FF"/>
</linearGradient>
<linearGradient id="paint18_linear_502_66" x1="474.209" y1="806.538" x2="577.056" y2="734.817" gradientUnits="userSpaceOnUse">
<stop stop-color="#FF1CF7"/>
<stop offset="0.177083" stop-color="#00F0FF"/>
</linearGradient>
<linearGradient id="paint19_linear_502_66" x1="464.5" y1="792.107" x2="568.284" y2="728.028" gradientUnits="userSpaceOnUse">
<stop stop-color="#FF1CF7"/>
<stop offset="0.177083" stop-color="#00F0FF"/>
</linearGradient>
<linearGradient id="paint20_linear_502_66" x1="455.094" y1="777.788" x2="559.312" y2="721.294" gradientUnits="userSpaceOnUse">
<stop stop-color="#FF1CF7"/>
<stop offset="0.177083" stop-color="#00F0FF"/>
</linearGradient>
<linearGradient id="paint21_linear_502_66" x1="445.978" y1="763.598" x2="550.121" y2="714.605" gradientUnits="userSpaceOnUse">
<stop stop-color="#FF1CF7"/>
<stop offset="0.177083" stop-color="#00F0FF"/>
</linearGradient>
<linearGradient id="paint22_linear_502_66" x1="859.071" y1="1071.62" x2="779.346" y2="939.711" gradientUnits="userSpaceOnUse">
<stop stop-color="#FF1CF7"/>
<stop offset="0.177083" stop-color="#00F0FF"/>
</linearGradient>
<linearGradient id="paint23_linear_502_66" x1="847.055" y1="1075.35" x2="776.433" y2="941.155" gradientUnits="userSpaceOnUse">
<stop stop-color="#FF1CF7"/>
<stop offset="0.177083" stop-color="#00F0FF"/>
</linearGradient>
<linearGradient id="paint24_linear_502_66" x1="838.152" y1="1078.04" x2="776.541" y2="942.221" gradientUnits="userSpaceOnUse">
<stop stop-color="#FF1CF7"/>
<stop offset="0.177083" stop-color="#00F0FF"/>
</linearGradient>
<linearGradient id="paint25_linear_502_66" x1="820.047" y1="1081.56" x2="768.182" y2="947.025" gradientUnits="userSpaceOnUse">
<stop stop-color="#FF1CF7"/>
<stop offset="0.177083" stop-color="#00F0FF"/>
</linearGradient>
<linearGradient id="paint26_linear_502_66" x1="802.051" y1="1084.79" x2="759.469" y2="952.168" gradientUnits="userSpaceOnUse">
<stop stop-color="#FF1CF7"/>
<stop offset="0.177083" stop-color="#00F0FF"/>
</linearGradient>
<linearGradient id="paint27_linear_502_66" x1="784.186" y1="1087.74" x2="750.395" y2="957.595" gradientUnits="userSpaceOnUse">
<stop stop-color="#FF1CF7"/>
<stop offset="0.177083" stop-color="#00F0FF"/>
</linearGradient>
<linearGradient id="paint28_linear_502_66" x1="766.471" y1="1090.42" x2="740.96" y2="963.257" gradientUnits="userSpaceOnUse">
<stop stop-color="#FF1CF7"/>
<stop offset="0.177083" stop-color="#00F0FF"/>
</linearGradient>
<linearGradient id="paint29_linear_502_66" x1="748.927" y1="1092.85" x2="731.169" y2="969.109" gradientUnits="userSpaceOnUse">
<stop stop-color="#FF1CF7"/>
<stop offset="0.177083" stop-color="#00F0FF"/>
</linearGradient>
<linearGradient id="paint30_linear_502_66" x1="731.568" y1="1095.05" x2="721.033" y2="975.108" gradientUnits="userSpaceOnUse">
<stop stop-color="#FF1CF7"/>
<stop offset="0.177083" stop-color="#00F0FF"/>
</linearGradient>
<linearGradient id="paint31_linear_502_66" x1="717.183" y1="1098.79" x2="713.513" y2="988.258" gradientUnits="userSpaceOnUse">
<stop stop-color="#FF1CF7"/>
<stop offset="0.177083" stop-color="#00F0FF"/>
</linearGradient>
<linearGradient id="paint32_linear_502_66" x1="703.336" y1="1102.02" x2="705.468" y2="999.416" gradientUnits="userSpaceOnUse">
<stop stop-color="#FF1CF7"/>
<stop offset="0.177083" stop-color="#00F0FF"/>
</linearGradient>
<linearGradient id="paint33_linear_502_66" x1="1137.41" y1="849.057" x2="983.559" y2="889.064" gradientUnits="userSpaceOnUse">
<stop stop-color="#FF1CF7"/>
<stop offset="0.177083" stop-color="#00F0FF"/>
</linearGradient>
<linearGradient id="paint34_linear_502_66" x1="1135.92" y1="866.728" x2="983.259" y2="896.833" gradientUnits="userSpaceOnUse">
<stop stop-color="#FF1CF7"/>
<stop offset="0.177083" stop-color="#00F0FF"/>
</linearGradient>
<linearGradient id="paint35_linear_502_66" x1="1134.14" y1="884.206" x2="983.35" y2="904.591" gradientUnits="userSpaceOnUse">
<stop stop-color="#FF1CF7"/>
<stop offset="0.177083" stop-color="#00F0FF"/>
</linearGradient>
<linearGradient id="paint36_linear_502_66" x1="1132.08" y1="901.474" x2="983.847" y2="912.381" gradientUnits="userSpaceOnUse">
<stop stop-color="#FF1CF7"/>
<stop offset="0.177083" stop-color="#00F0FF"/>
</linearGradient>
<linearGradient id="paint37_linear_502_66" x1="1129.75" y1="918.518" x2="984.76" y2="920.255" gradientUnits="userSpaceOnUse">
<stop stop-color="#FF1CF7"/>
<stop offset="0.177083" stop-color="#00F0FF"/>
</linearGradient>
<linearGradient id="paint38_linear_502_66" x1="1127.19" y1="935.327" x2="986.092" y2="928.268" gradientUnits="userSpaceOnUse">
<stop stop-color="#FF1CF7"/>
<stop offset="0.177083" stop-color="#00F0FF"/>
</linearGradient>
<linearGradient id="paint39_linear_502_66" x1="1124.41" y1="951.888" x2="987.834" y2="936.473" gradientUnits="userSpaceOnUse">
<stop stop-color="#FF1CF7"/>
<stop offset="0.177083" stop-color="#00F0FF"/>
</linearGradient>
<linearGradient id="paint40_linear_502_66" x1="1121.43" y1="968.193" x2="989.97" y2="944.926" gradientUnits="userSpaceOnUse">
<stop stop-color="#FF1CF7"/>
<stop offset="0.177083" stop-color="#00F0FF"/>
</linearGradient>
<linearGradient id="paint41_linear_502_66" x1="1118.28" y1="984.235" x2="992.474" y2="953.682" gradientUnits="userSpaceOnUse">
<stop stop-color="#FF1CF7"/>
<stop offset="0.177083" stop-color="#00F0FF"/>
</linearGradient>
<linearGradient id="paint42_linear_502_66" x1="1114.97" y1="1000.01" x2="995.311" y2="962.788" gradientUnits="userSpaceOnUse">
<stop stop-color="#FF1CF7"/>
<stop offset="0.177083" stop-color="#00F0FF"/>
</linearGradient>
<linearGradient id="paint43_linear_502_66" x1="1107.89" y1="1014.28" x2="997.487" y2="972.096" gradientUnits="userSpaceOnUse">
<stop stop-color="#FF1CF7"/>
<stop offset="0.177083" stop-color="#00F0FF"/>
</linearGradient>
<linearGradient id="paint44_linear_502_66" x1="1004.03" y1="518.175" x2="973.74" y2="664.777" gradientUnits="userSpaceOnUse">
<stop stop-color="#FF1CF7"/>
<stop offset="0.177083" stop-color="#00F0FF"/>
</linearGradient>
<linearGradient id="paint45_linear_502_66" x1="1021.08" y1="527.358" x2="984.187" y2="668.102" gradientUnits="userSpaceOnUse">
<stop stop-color="#FF1CF7"/>
<stop offset="0.177083" stop-color="#00F0FF"/>
</linearGradient>
<linearGradient id="paint46_linear_502_66" x1="1037.83" y1="536.71" x2="994.869" y2="671.417" gradientUnits="userSpaceOnUse">
<stop stop-color="#FF1CF7"/>
<stop offset="0.177083" stop-color="#00F0FF"/>
</linearGradient>
<linearGradient id="paint47_linear_502_66" x1="1054.29" y1="546.21" x2="1005.76" y2="674.728" gradientUnits="userSpaceOnUse">
<stop stop-color="#FF1CF7"/>
<stop offset="0.177083" stop-color="#00F0FF"/>
</linearGradient>
<linearGradient id="paint48_linear_502_66" x1="1070.45" y1="555.835" x2="1016.85" y2="678.039" gradientUnits="userSpaceOnUse">
<stop stop-color="#FF1CF7"/>
<stop offset="0.177083" stop-color="#00F0FF"/>
</linearGradient>
<linearGradient id="paint49_linear_502_66" x1="1086.29" y1="565.561" x2="1028.11" y2="681.349" gradientUnits="userSpaceOnUse">
<stop stop-color="#FF1CF7"/>
<stop offset="0.177083" stop-color="#00F0FF"/>
</linearGradient>
<linearGradient id="paint50_linear_502_66" x1="1101.82" y1="575.366" x2="1039.53" y2="684.658" gradientUnits="userSpaceOnUse">
<stop stop-color="#FF1CF7"/>
<stop offset="0.177083" stop-color="#00F0FF"/>
</linearGradient>
<linearGradient id="paint51_linear_502_66" x1="1117.03" y1="585.227" x2="1051.11" y2="687.96" gradientUnits="userSpaceOnUse">
<stop stop-color="#FF1CF7"/>
<stop offset="0.177083" stop-color="#00F0FF"/>
</linearGradient>
<linearGradient id="paint52_linear_502_66" x1="1131.93" y1="595.121" x2="1062.82" y2="691.252" gradientUnits="userSpaceOnUse">
<stop stop-color="#FF1CF7"/>
<stop offset="0.177083" stop-color="#00F0FF"/>
</linearGradient>
<linearGradient id="paint53_linear_502_66" x1="1146.5" y1="605.026" x2="1074.68" y2="694.53" gradientUnits="userSpaceOnUse">
<stop stop-color="#FF1CF7"/>
<stop offset="0.177083" stop-color="#00F0FF"/>
</linearGradient>
<linearGradient id="paint54_linear_502_66" x1="1160.77" y1="614.919" x2="1086.67" y2="697.788" gradientUnits="userSpaceOnUse">
<stop stop-color="#FF1CF7"/>
<stop offset="0.177083" stop-color="#00F0FF"/>
</linearGradient>
<linearGradient id="paint55_linear_502_66" x1="818.652" y1="972.61" x2="826.184" y2="500.295" gradientUnits="userSpaceOnUse">
<stop stop-color="#FF1CF7"/>
<stop offset="1" stop-color="#00F0FF"/>
</linearGradient>
<linearGradient id="paint56_linear_502_66" x1="772.009" y1="964.166" x2="860.955" y2="506.122" gradientUnits="userSpaceOnUse">
<stop stop-color="#FF1CF7"/>
<stop offset="1" stop-color="#00F0FF"/>
</linearGradient>
<linearGradient id="paint57_linear_502_66" x1="728.703" y1="947.953" x2="896.242" y2="515.918" gradientUnits="userSpaceOnUse">
<stop stop-color="#FF1CF7"/>
<stop offset="1" stop-color="#00F0FF"/>
</linearGradient>
<linearGradient id="paint58_linear_502_66" x1="690.24" y1="924.817" x2="932.7" y2="531.35" gradientUnits="userSpaceOnUse">
<stop stop-color="#FF1CF7"/>
<stop offset="1" stop-color="#00F0FF"/>
</linearGradient>
<linearGradient id="paint59_linear_502_66" x1="657.895" y1="895.837" x2="969.607" y2="554.637" gradientUnits="userSpaceOnUse">
<stop stop-color="#FF1CF7"/>
<stop offset="1" stop-color="#00F0FF"/>
</linearGradient>
<linearGradient id="paint60_linear_502_66" x1="632.676" y1="862.281" x2="1004.56" y2="587.714" gradientUnits="userSpaceOnUse">
<stop stop-color="#FF1CF7"/>
<stop offset="1" stop-color="#00F0FF"/>
</linearGradient>
<linearGradient id="paint61_linear_502_66" x1="615.287" y1="825.549" x2="1033.64" y2="631.171" gradientUnits="userSpaceOnUse">
<stop stop-color="#FF1CF7"/>
<stop offset="1" stop-color="#00F0FF"/>
</linearGradient>
<linearGradient id="paint62_linear_502_66" x1="606.115" y1="787.117" x2="1052.33" y2="683.298" gradientUnits="userSpaceOnUse">
<stop stop-color="#FF1CF7"/>
<stop offset="1" stop-color="#00F0FF"/>
</linearGradient>
<linearGradient id="paint63_linear_502_66" x1="605.225" y1="748.473" x2="1057.08" y2="739.84" gradientUnits="userSpaceOnUse">
<stop stop-color="#FF1CF7"/>
<stop offset="1" stop-color="#00F0FF"/>
</linearGradient>
<linearGradient id="paint64_linear_502_66" x1="612.362" y1="711.069" x2="1046.84" y2="794.926" gradientUnits="userSpaceOnUse">
<stop stop-color="#FF1CF7"/>
<stop offset="1" stop-color="#00F0FF"/>
</linearGradient>
<linearGradient id="paint65_linear_502_66" x1="626.98" y1="676.258" x2="1023.63" y2="842.921" gradientUnits="userSpaceOnUse">
<stop stop-color="#FF1CF7"/>
<stop offset="1" stop-color="#00F0FF"/>
</linearGradient>
<linearGradient id="paint66_linear_502_66" x1="648.264" y1="645.249" x2="991.732" y2="880.174" gradientUnits="userSpaceOnUse">
<stop stop-color="#FF1CF7"/>
<stop offset="1" stop-color="#00F0FF"/>
</linearGradient>
<linearGradient id="paint67_linear_502_66" x1="675.176" y1="619.065" x2="956.028" y2="905.739" gradientUnits="userSpaceOnUse">
<stop stop-color="#FF1CF7"/>
<stop offset="1" stop-color="#00F0FF"/>
</linearGradient>
<linearGradient id="paint68_linear_502_66" x1="706.5" y1="598.508" x2="920.488" y2="920.899" gradientUnits="userSpaceOnUse">
<stop stop-color="#FF1CF7"/>
<stop offset="1" stop-color="#00F0FF"/>
</linearGradient>
<linearGradient id="paint69_linear_502_66" x1="740.894" y1="584.138" x2="887.418" y2="928.086" gradientUnits="userSpaceOnUse">
<stop stop-color="#FF1CF7"/>
<stop offset="1" stop-color="#00F0FF"/>
</linearGradient>
<linearGradient id="paint70_linear_502_66" x1="776.949" y1="576.257" x2="857.484" y2="929.821" gradientUnits="userSpaceOnUse">
<stop stop-color="#FF1CF7"/>
<stop offset="1" stop-color="#00F0FF"/>
</linearGradient>
<linearGradient id="paint71_linear_502_66" x1="813.244" y1="574.907" x2="830.15" y2="928.01" gradientUnits="userSpaceOnUse">
<stop stop-color="#FF1CF7"/>
<stop offset="1" stop-color="#00F0FF"/>
</linearGradient>
<linearGradient id="paint72_linear_502_66" x1="848.402" y1="579.878" x2="804.27" y2="923.607" gradientUnits="userSpaceOnUse">
<stop stop-color="#FF1CF7"/>
<stop offset="1" stop-color="#00F0FF"/>
</linearGradient>
<linearGradient id="paint73_linear_502_66" x1="881.146" y1="590.728" x2="778.651" y2="916.554" gradientUnits="userSpaceOnUse">
<stop stop-color="#FF1CF7"/>
<stop offset="1" stop-color="#00F0FF"/>
</linearGradient>
<linearGradient id="paint74_linear_502_66" x1="910.339" y1="606.8" x2="752.56" y2="905.932" gradientUnits="userSpaceOnUse">
<stop stop-color="#FF1CF7"/>
<stop offset="1" stop-color="#00F0FF"/>
</linearGradient>
<linearGradient id="paint75_linear_502_66" x1="935.026" y1="627.268" x2="726.149" y2="890.284" gradientUnits="userSpaceOnUse">
<stop stop-color="#FF1CF7"/>
<stop offset="1" stop-color="#00F0FF"/>
</linearGradient>
<linearGradient id="paint76_linear_502_66" x1="954.467" y1="651.164" x2="700.731" y2="868.157" gradientUnits="userSpaceOnUse">
<stop stop-color="#FF1CF7"/>
<stop offset="1" stop-color="#00F0FF"/>
</linearGradient>
<linearGradient id="paint77_linear_502_66" x1="968.156" y1="677.432" x2="678.777" y2="838.826" gradientUnits="userSpaceOnUse">
<stop stop-color="#FF1CF7"/>
<stop offset="1" stop-color="#00F0FF"/>
</linearGradient>
<linearGradient id="paint78_linear_502_66" x1="975.832" y1="704.964" x2="663.41" y2="803.024" gradientUnits="userSpaceOnUse">
<stop stop-color="#FF1CF7"/>
<stop offset="1" stop-color="#00F0FF"/>
</linearGradient>
<linearGradient id="paint79_linear_502_66" x1="977.48" y1="732.653" x2="657.418" y2="763.304" gradientUnits="userSpaceOnUse">
<stop stop-color="#FF1CF7"/>
<stop offset="1" stop-color="#00F0FF"/>
</linearGradient>
<linearGradient id="paint80_linear_502_66" x1="973.32" y1="759.434" x2="662.081" y2="723.627" gradientUnits="userSpaceOnUse">
<stop stop-color="#FF1CF7"/>
<stop offset="1" stop-color="#00F0FF"/>
</linearGradient>
<linearGradient id="paint81_linear_502_66" x1="963.794" y1="784.325" x2="676.514" y2="688.186" gradientUnits="userSpaceOnUse">
<stop stop-color="#FF1CF7"/>
<stop offset="1" stop-color="#00F0FF"/>
</linearGradient>
<linearGradient id="paint82_linear_502_66" x1="949.532" y1="806.463" x2="697.967" y2="660.05" gradientUnits="userSpaceOnUse">
<stop stop-color="#FF1CF7"/>
<stop offset="1" stop-color="#00F0FF"/>
</linearGradient>
<linearGradient id="paint83_linear_502_66" x1="931.323" y1="825.136" x2="722.911" y2="640.402" gradientUnits="userSpaceOnUse">
<stop stop-color="#FF1CF7"/>
<stop offset="1" stop-color="#00F0FF"/>
</linearGradient>
<linearGradient id="paint84_linear_502_66" x1="910.075" y1="839.802" x2="748.217" y2="628.66" gradientUnits="userSpaceOnUse">
<stop stop-color="#FF1CF7"/>
<stop offset="1" stop-color="#00F0FF"/>
</linearGradient>
<linearGradient id="paint85_linear_502_66" x1="886.773" y1="850.106" x2="771.863" y2="623.191" gradientUnits="userSpaceOnUse">
<stop stop-color="#FF1CF7"/>
<stop offset="1" stop-color="#00F0FF"/>
</linearGradient>
<linearGradient id="paint86_linear_502_66" x1="862.438" y1="855.885" x2="793.044" y2="622.108" gradientUnits="userSpaceOnUse">
<stop stop-color="#FF1CF7"/>
<stop offset="1" stop-color="#00F0FF"/>
</linearGradient>
<linearGradient id="paint87_linear_502_66" x1="838.076" y1="857.166" x2="811.904" y2="623.849" gradientUnits="userSpaceOnUse">
<stop stop-color="#FF1CF7"/>
<stop offset="1" stop-color="#00F0FF"/>
</linearGradient>
<linearGradient id="paint88_linear_502_66" x1="814.646" y1="854.159" x2="829.127" y2="627.471" gradientUnits="userSpaceOnUse">
<stop stop-color="#FF1CF7"/>
<stop offset="1" stop-color="#00F0FF"/>
</linearGradient>
<linearGradient id="paint89_linear_502_66" x1="793.015" y1="847.237" x2="845.528" y2="632.719" gradientUnits="userSpaceOnUse">
<stop stop-color="#FF1CF7"/>
<stop offset="1" stop-color="#00F0FF"/>
</linearGradient>
<linearGradient id="paint90_linear_502_66" x1="773.932" y1="836.912" x2="861.701" y2="639.935" gradientUnits="userSpaceOnUse">
<stop stop-color="#FF1CF7"/>
<stop offset="1" stop-color="#00F0FF"/>
</linearGradient>
<linearGradient id="paint91_linear_502_66" x1="757.997" y1="823.808" x2="877.746" y2="649.862" gradientUnits="userSpaceOnUse">
<stop stop-color="#FF1CF7"/>
<stop offset="1" stop-color="#00F0FF"/>
</linearGradient>
<linearGradient id="paint92_linear_502_66" x1="745.645" y1="808.632" x2="893.078" y2="663.325" gradientUnits="userSpaceOnUse">
<stop stop-color="#FF1CF7"/>
<stop offset="1" stop-color="#00F0FF"/>
</linearGradient>
<linearGradient id="paint93_linear_502_66" x1="737.138" y1="792.133" x2="906.407" y2="680.804" gradientUnits="userSpaceOnUse">
<stop stop-color="#FF1CF7"/>
<stop offset="1" stop-color="#00F0FF"/>
</linearGradient>
<linearGradient id="paint94_linear_502_66" x1="732.556" y1="775.074" x2="915.978" y2="701.999" gradientUnits="userSpaceOnUse">
<stop stop-color="#FF1CF7"/>
<stop offset="1" stop-color="#00F0FF"/>
</linearGradient>
<linearGradient id="paint95_linear_502_66" x1="731.809" y1="758.195" x2="920.119" y2="725.548" gradientUnits="userSpaceOnUse">
<stop stop-color="#FF1CF7"/>
<stop offset="1" stop-color="#00F0FF"/>
</linearGradient>
<linearGradient id="paint96_linear_502_66" x1="734.648" y1="742.181" x2="917.937" y2="749.187" gradientUnits="userSpaceOnUse">
<stop stop-color="#FF1CF7"/>
<stop offset="1" stop-color="#00F0FF"/>
</linearGradient>
<linearGradient id="paint97_linear_502_66" x1="740.68" y1="727.637" x2="909.8" y2="770.375" gradientUnits="userSpaceOnUse">
<stop stop-color="#FF1CF7"/>
<stop offset="1" stop-color="#00F0FF"/>
</linearGradient>
<linearGradient id="paint98_linear_502_66" x1="749.402" y1="715.064" x2="897.273" y2="787.128" gradientUnits="userSpaceOnUse">
<stop stop-color="#FF1CF7"/>
<stop offset="1" stop-color="#00F0FF"/>
</linearGradient>
<linearGradient id="paint99_linear_502_66" x1="760.219" y1="704.839" x2="882.52" y2="798.576" gradientUnits="userSpaceOnUse">
<stop stop-color="#FF1CF7"/>
<stop offset="1" stop-color="#00F0FF"/>
</linearGradient>
<linearGradient id="paint100_linear_502_66" x1="772.484" y1="697.209" x2="867.559" y2="804.975" gradientUnits="userSpaceOnUse">
<stop stop-color="#FF1CF7"/>
<stop offset="1" stop-color="#00F0FF"/>
</linearGradient>
<linearGradient id="paint101_linear_502_66" x1="785.529" y1="692.285" x2="853.772" y2="807.311" gradientUnits="userSpaceOnUse">
<stop stop-color="#FF1CF7"/>
<stop offset="1" stop-color="#00F0FF"/>
</linearGradient>
<linearGradient id="paint102_linear_502_66" x1="798.696" y1="690.044" x2="841.788" y2="806.787" gradientUnits="userSpaceOnUse">
<stop stop-color="#FF1CF7"/>
<stop offset="1" stop-color="#00F0FF"/>
</linearGradient>
<linearGradient id="paint103_linear_502_66" x1="811.37" y1="690.333" x2="831.636" y2="804.454" gradientUnits="userSpaceOnUse">
<stop stop-color="#FF1CF7"/>
<stop offset="1" stop-color="#00F0FF"/>
</linearGradient>
<linearGradient id="paint104_linear_502_66" x1="823.001" y1="692.893" x2="823.001" y2="801.016" gradientUnits="userSpaceOnUse">
<stop stop-color="#FF1CF7"/>
<stop offset="1" stop-color="#00F0FF"/>
</linearGradient>
</defs>
</svg>
